<?xml version="1.0" encoding="UTF-8" standalone="no"?>
<!-- Created with Inkscape (http://www.inkscape.org/) -->

<svg
   xmlns:dc="http://purl.org/dc/elements/1.1/"
   xmlns:cc="http://creativecommons.org/ns#"
   xmlns:rdf="http://www.w3.org/1999/02/22-rdf-syntax-ns#"
   xmlns:svg="http://www.w3.org/2000/svg"
   xmlns="http://www.w3.org/2000/svg"
   xmlns:xlink="http://www.w3.org/1999/xlink"
   version="1.1"
   width="105.79823"
   height="48.938969"
   id="svg2">
  <defs
     id="defs4">
    <linearGradient
       id="linearGradient3019">
      <stop
         id="stop3021"
         style="stop-color:#474747;stop-opacity:1"
         offset="0" />
      <stop
         id="stop3023"
         style="stop-color:#2a2a2a;stop-opacity:1"
         offset="1" />
    </linearGradient>
    <linearGradient
       x1="82.024384"
       y1="177.6711"
       x2="82.024384"
       y2="194.29187"
       id="linearGradient3807"
       xlink:href="#linearGradient3019"
       gradientUnits="userSpaceOnUse" />
    <linearGradient
       x1="82.024384"
       y1="177.6711"
       x2="82.024384"
       y2="194.29187"
       id="linearGradient3817"
       xlink:href="#linearGradient3019"
       gradientUnits="userSpaceOnUse" />
    <linearGradient
       x1="82.024384"
       y1="177.6711"
       x2="82.024384"
       y2="194.29187"
       id="linearGradient3832"
       xlink:href="#linearGradient3019"
       gradientUnits="userSpaceOnUse"
       gradientTransform="translate(17.375,-28)" />
    <linearGradient
       x1="82.024384"
       y1="177.6711"
       x2="82.024384"
       y2="194.29187"
       id="linearGradient3850"
       xlink:href="#linearGradient3019"
       gradientUnits="userSpaceOnUse" />
    <linearGradient
       x1="82.024384"
       y1="177.6711"
       x2="82.024384"
       y2="194.29187"
       id="linearGradient3871"
       xlink:href="#linearGradient3019"
       gradientUnits="userSpaceOnUse" />
    <linearGradient
       x1="82.024384"
       y1="177.6711"
       x2="82.024384"
       y2="194.29187"
       id="linearGradient3881"
       xlink:href="#linearGradient3019"
       gradientUnits="userSpaceOnUse" />
    <linearGradient
       x1="82.024384"
       y1="177.6711"
       x2="82.024384"
       y2="194.29187"
       id="linearGradient3925"
       xlink:href="#linearGradient3019"
       gradientUnits="userSpaceOnUse" />
    <linearGradient
       x1="82.024384"
       y1="177.6711"
       x2="82.024384"
       y2="194.29187"
       id="linearGradient3929"
       xlink:href="#linearGradient3019"
       gradientUnits="userSpaceOnUse"
       gradientTransform="translate(-78,-144.25573)" />
    <linearGradient
       x1="82.024384"
       y1="177.6711"
       x2="82.024384"
       y2="194.29187"
       id="linearGradient3932"
       xlink:href="#linearGradient3019"
       gradientUnits="userSpaceOnUse"
       gradientTransform="translate(-78,-144.25573)" />
    <linearGradient
       x1="82.024384"
       y1="177.6711"
       x2="82.024384"
       y2="194.29187"
       id="linearGradient3935"
       xlink:href="#linearGradient3019"
       gradientUnits="userSpaceOnUse"
       gradientTransform="translate(-78,-144.25573)" />
    <linearGradient
       x1="82.024384"
       y1="177.6711"
       x2="82.024384"
       y2="194.29187"
       id="linearGradient3938"
       xlink:href="#linearGradient3019"
       gradientUnits="userSpaceOnUse"
       gradientTransform="translate(-78,-144.25573)" />
    <linearGradient
       x1="82.024384"
       y1="177.6711"
       x2="82.024384"
       y2="194.29187"
       id="linearGradient3946"
       xlink:href="#linearGradient3019"
       gradientUnits="userSpaceOnUse"
       gradientTransform="translate(15.625,-28)" />
    <linearGradient
       x1="82.024384"
       y1="177.6711"
       x2="82.024384"
       y2="194.29187"
       id="linearGradient3951"
       xlink:href="#linearGradient3019"
       gradientUnits="userSpaceOnUse"
       gradientTransform="translate(35.0523,-27.973165)" />
    <linearGradient
       x1="82.024384"
       y1="177.6711"
       x2="82.024384"
       y2="194.29187"
       id="linearGradient3958"
       xlink:href="#linearGradient3019"
       gradientUnits="userSpaceOnUse"
       gradientTransform="translate(59.75565,-27.381282)" />
    <linearGradient
       x1="82.024384"
       y1="177.6711"
       x2="82.024384"
       y2="194.29187"
       id="linearGradient3963"
       xlink:href="#linearGradient3019"
       gradientUnits="userSpaceOnUse"
       gradientTransform="translate(-4.625,-28)" />
    <linearGradient
       x1="82.024384"
       y1="177.6711"
       x2="82.024384"
       y2="194.29187"
       id="linearGradient3968"
       xlink:href="#linearGradient3019"
       gradientUnits="userSpaceOnUse"
       gradientTransform="translate(-24.875,-68)" />
    <linearGradient
       x1="82.024384"
       y1="177.6711"
       x2="82.024384"
       y2="194.29187"
       id="linearGradient3982"
       xlink:href="#linearGradient3019"
       gradientUnits="userSpaceOnUse"
       gradientTransform="translate(59.755641,-27.372185)" />
    <linearGradient
       x1="82.024384"
       y1="177.6711"
       x2="82.024384"
       y2="194.29187"
       id="linearGradient3096"
       xlink:href="#linearGradient3019"
       gradientUnits="userSpaceOnUse"
       gradientTransform="translate(-78,-144.25573)" />
    <linearGradient
       x1="82.024384"
       y1="177.6711"
       x2="82.024384"
       y2="194.29187"
       id="linearGradient3127"
       xlink:href="#linearGradient3019"
       gradientUnits="userSpaceOnUse"
       gradientTransform="translate(-78,-144.25573)" />
  </defs>
  <metadata
     id="metadata7">
    <rdf:RDF>
      <cc:Work
         rdf:about="">
        <dc:format>image/svg+xml</dc:format>
        <dc:type
           rdf:resource="http://purl.org/dc/dcmitype/StillImage" />
        <dc:title></dc:title>
      </cc:Work>
    </rdf:RDF>
  </metadata>
  <g
     transform="translate(-51.75491,-145.78729)"
     id="layer2"
     style="display:inline" />
  <g
     transform="translate(-51.75491,-145.78729)"
     id="layer1"
     style="display:inline">
    <g
       transform="translate(3.62991,0.39746)"
       id="g3984">
      <use
         transform="translate(5.265165,-29.124998)"
         id="use3941"
         x="0"
         y="0"
         width="110.89581"
         height="50.134098"
         xlink:href="#rect3875" />
      <path
         d="m 56.34375,160.61218 c 0.46875,-0.625 1.296875,-0.0781 1.640625,-0.48438 0.34375,-0.40625 0.609375,-1.07812 1.203125,-1.07812 0.59375,0 1.306311,1.83756 2.09375,2.875 0.467588,0.61604 1.125,1.60937 0.6875,2.64063 -0.253963,0.59862 -1.63597,0.92949 -2.953125,0.68749 -0.981516,-0.18032 -3.186412,-0.78288 -3.313285,-1.03582 -0.351658,-0.7011 0.621177,-0.67002 0.668084,-1.1501 0.117417,-1.20176 -0.557924,-1.6422 -0.02667,-2.4547 z"
         id="path3797"
         style="fill:none;stroke:#f9bf0e;stroke-width:0.5;stroke-linecap:butt;stroke-linejoin:miter;stroke-opacity:1" />
      <path
         d="m 64.748202,152.56776 c 0.654345,0.42683 0.600329,1.32023 0.871991,1.69915 0.310076,0.4325 1.484282,0.31274 1.342067,1.16122 -0.169234,1.00968 -1.748105,1.20505 -3.013022,1.90246 -0.677281,0.37342 -1.945652,1.72101 -2.83996,1.04639 -0.863961,-0.65173 -0.409591,-1.63411 -0.254334,-2.96429 0.115681,-0.99121 -0.17739,-2.94957 0.0667,-3.09273 0.676576,-0.3968 0.990497,0.54473 1.472618,0.56011 1.206869,0.0385 1.508404,-0.78923 2.353938,-0.31231 z"
         id="path3799"
         style="fill:none;stroke:#f9bf0e;stroke-width:0.5;stroke-linecap:butt;stroke-linejoin:miter;stroke-opacity:1" />
    </g>
    <g
       transform="translate(-16.62009,23.33643)"
       id="g3989">
      <use
         transform="translate(25.515165,-29.124998)"
         id="use3974"
         x="0"
         y="0"
         width="110.89581"
         height="50.134098"
         xlink:href="#rect3875" />
      <path
         d="m 76.59375,160.61218 c 0.46875,-0.625 1.296875,-0.0781 1.640625,-0.48438 0.34375,-0.40625 0.609375,-1.07812 1.203125,-1.07812 0.59375,0 1.306311,1.83756 2.09375,2.875 0.467588,0.61604 1.125,1.60937 0.6875,2.64063 -0.253963,0.59862 -1.63597,0.92949 -2.953125,0.68749 -0.981516,-0.18032 -3.186412,-0.78288 -3.313285,-1.03582 -0.351658,-0.7011 0.621177,-0.67002 0.668084,-1.1501 0.117417,-1.20176 -0.557924,-1.6422 -0.02667,-2.4547 z"
         id="path3813"
         style="fill:#f9bf0e;fill-opacity:1;stroke:#000000;stroke-width:0.5;stroke-linecap:butt;stroke-linejoin:miter;stroke-opacity:1" />
      <path
         d="m 84.998202,152.56776 c 0.654345,0.42683 0.600329,1.32023 0.871991,1.69915 0.310076,0.4325 1.484282,0.31274 1.342067,1.16122 -0.169234,1.00968 -1.748105,1.20505 -3.013022,1.90246 -0.677281,0.37342 -1.945652,1.72101 -2.83996,1.04639 -0.863961,-0.65173 -0.409591,-1.63411 -0.254334,-2.96429 0.115681,-0.99121 -0.17739,-2.94957 0.0667,-3.09273 0.676576,-0.3968 0.990497,0.54473 1.472618,0.56011 1.206869,0.0385 1.508404,-0.78923 2.353938,-0.31231 z"
         id="path3815"
         style="fill:#f9bf0e;fill-opacity:1;stroke:#000000;stroke-width:0.5;stroke-linecap:butt;stroke-linejoin:miter;stroke-opacity:1" />
    </g>
    <g
       transform="translate(24.328983,-12.115248)"
       id="g3852">
      <path
         d="m 117.34375,172.73718 c 0.46875,-0.625 1.29688,-0.0781 1.64063,-0.48438 0.34375,-0.40625 0.60937,-1.07812 1.20312,-1.07812 0.59375,0 1.30631,1.83756 2.09375,2.875 0.46759,0.61604 1.125,1.60937 0.6875,2.64063 -0.25396,0.59862 -1.63597,0.92949 -2.95312,0.68749 -0.98152,-0.18032 -3.18642,-0.78288 -3.31329,-1.03582 -0.35166,-0.7011 0.62118,-0.67002 0.66808,-1.1501 0.11742,-1.20176 -0.55792,-1.6422 -0.0267,-2.4547 z"
         id="path3823"
         style="fill:none;stroke:#000000;stroke-width:0.5;stroke-linecap:butt;stroke-linejoin:miter;stroke-opacity:1" />
      <path
         d="m 125.7482,164.69276 c 0.65435,0.42683 0.60033,1.32023 0.87199,1.69915 0.31008,0.4325 1.48428,0.31274 1.34207,1.16122 -0.16923,1.00968 -1.7481,1.20505 -3.01302,1.90246 -0.67728,0.37342 -1.94565,1.72101 -2.83996,1.04639 -0.86396,-0.65173 -0.40959,-1.63411 -0.25434,-2.96429 0.11568,-0.99121 -0.17739,-2.94957 0.0667,-3.09273 0.67658,-0.3968 0.9905,0.54473 1.47262,0.56011 1.20687,0.0385 1.50841,-0.78923 2.35394,-0.31231 z"
         id="path3825"
         style="fill:none;stroke:#000000;stroke-width:0.5;stroke-linecap:butt;stroke-linejoin:miter;stroke-opacity:1" />
    </g>
    <g
       transform="translate(5.1081799,0.37062)"
       id="g3999">
      <use
         transform="translate(65.192464,-29.098158)"
         id="use3978"
         x="0"
         y="0"
         width="110.89581"
         height="50.134098"
         xlink:href="#rect3875" />
      <path
         d="m 116.27105,160.63901 c 0.46875,-0.625 1.29688,-0.0781 1.64063,-0.48437 0.34375,-0.40625 0.60937,-1.07813 1.20312,-1.07813 0.59375,0 1.30631,1.83756 2.09375,2.875 0.46759,0.61604 1.125,1.60938 0.6875,2.64063 -0.25396,0.59862 -1.63597,0.92949 -2.95312,0.68749 -0.98152,-0.18032 -3.18642,-0.78288 -3.31329,-1.03582 -0.35166,-0.7011 0.62118,-0.67002 0.66808,-1.1501 0.11742,-1.20176 -0.55792,-1.6422 -0.0267,-2.4547 z"
         id="path3846"
         style="fill:#f9bf0e;fill-opacity:1;stroke:#f9bf0e;stroke-width:0.5;stroke-linecap:butt;stroke-linejoin:miter;stroke-opacity:1" />
      <path
         d="m 124.6755,152.59459 c 0.65435,0.42683 0.60033,1.32023 0.87199,1.69915 0.31008,0.4325 1.48428,0.31274 1.34207,1.16122 -0.16923,1.00968 -1.7481,1.20505 -3.01302,1.90246 -0.67728,0.37342 -1.94565,1.72101 -2.83996,1.04639 -0.86396,-0.65173 -0.40959,-1.63411 -0.25434,-2.96429 0.11568,-0.99121 -0.17739,-2.94957 0.0667,-3.09273 0.67658,-0.3968 0.9905,0.54473 1.47262,0.56011 1.20687,0.0385 1.50841,-0.78923 2.35394,-0.31231 z"
         id="path3848"
         style="fill:#f9bf0e;fill-opacity:1;stroke:#f9bf0e;stroke-width:0.5;stroke-linecap:butt;stroke-linejoin:miter;stroke-opacity:1" />
    </g>
    <g
       transform="translate(4.0669578,0.39746)"
       id="g3994">
      <use
         transform="translate(45.765165,-29.124998)"
         id="use3976"
         x="0"
         y="0"
         width="110.89581"
         height="50.134098"
         xlink:href="#rect3875" />
      <path
         d="m 96.84375,160.61218 c 0.46875,-0.625 1.296875,-0.0781 1.640625,-0.48438 0.34375,-0.40625 0.609375,-1.07812 1.203125,-1.07812 0.59375,0 1.30631,1.83756 2.09375,2.875 0.46759,0.61604 1.125,1.60937 0.6875,2.64063 -0.25396,0.59862 -1.63597,0.92949 -2.953125,0.68749 -0.981516,-0.18032 -3.186412,-0.78288 -3.313285,-1.03582 -0.351658,-0.7011 0.621177,-0.67002 0.668084,-1.1501 0.117417,-1.20176 -0.557924,-1.6422 -0.02667,-2.4547 z"
         id="path3867"
         style="fill:#f9bf0e;fill-opacity:1;stroke:none" />
      <path
         d="m 105.2482,152.56776 c 0.65435,0.42683 0.60033,1.32023 0.87199,1.69915 0.31008,0.4325 1.48428,0.31274 1.34207,1.16122 -0.16923,1.00968 -1.7481,1.20505 -3.01302,1.90246 -0.67728,0.37342 -1.94565,1.72101 -2.83996,1.04639 -0.86396,-0.65173 -0.40959,-1.63411 -0.25434,-2.96429 0.11568,-0.99121 -0.17739,-2.94957 0.0667,-3.09273 0.67658,-0.3968 0.9905,0.54473 1.47262,0.56011 1.20687,0.0385 1.50841,-0.78923 2.35394,-0.31231 z"
         id="path3869"
         style="fill:#f9bf0e;fill-opacity:1;stroke:none" />
    </g>
    <g
       transform="translate(29.363598,-28.727538)"
       id="g4011">
      <path
         d="m 1,34.125 0,1 -1,0 0,14 1,0 0,1 14,0 0,-1 1,0 0,-14 -1,0 0,-1 -14,0 z"
         transform="translate(47.859835,145.38983)"
         id="rect3875"
         style="fill:url(#linearGradient3127);fill-opacity:1;fill-rule:evenodd;stroke:none;display:inline" />
      <path
         d="m 53.922335,188.4466 c 0.01949,0 0.137452,0.0521 0.28125,0.21875 0.143798,0.16668 0.296188,0.39772 0.46875,0.6875 0.345124,0.57956 0.741511,1.29734 1.15625,1.84375 0.228784,0.30142 0.47171,0.71081 0.625,1.125 0.15329,0.41419 0.221146,0.83363 0.03125,1.28125 -0.06977,0.16446 -0.403034,0.38179 -0.90625,0.5 -0.503216,0.11821 -1.157873,0.14578 -1.78125,0.0312 -0.474805,-0.0872 -1.256411,-0.26653 -1.9375,-0.46875 -0.340544,-0.10111 -0.678193,-0.2223 -0.90625,-0.3125 -0.114029,-0.0451 -0.191306,-0.0926 -0.25,-0.125 -0.05869,-0.0324 -0.07153,-0.0803 -0.03125,0 -0.06754,-0.13465 -0.07424,-0.15898 -0.0625,-0.1875 0.01174,-0.0285 0.06781,-0.0959 0.15625,-0.15625 0.08844,-0.0603 0.194168,-0.12189 0.3125,-0.21875 0.118332,-0.0969 0.261365,-0.23398 0.28125,-0.4375 0.06351,-0.64999 -0.103842,-1.12374 -0.1875,-1.46875 -0.08366,-0.34501 -0.10275,-0.52668 0.125,-0.875 0.07871,-0.096 0.15167,-0.15913 0.25,-0.1875 0.106524,-0.0307 0.259436,-0.035 0.40625,-0.0312 0.146814,0.004 0.300693,0.0197 0.46875,0 0.168057,-0.0197 0.364228,-0.0895 0.5,-0.25 0.195262,-0.23076 0.337635,-0.49404 0.5,-0.6875 0.162365,-0.19346 0.297423,-0.28125 0.5,-0.28125 z m 2.125,-6.84375 c 0.07231,0.0179 0.150386,0.0725 0.25,0.15625 0.09961,0.0837 0.217618,0.21394 0.34375,0.3125 0.126132,0.0986 0.267837,0.18109 0.46875,0.1875 0.661165,0.0211 1.119362,-0.20717 1.4375,-0.34375 0.159069,-0.0683 0.288447,-0.11795 0.40625,-0.125 0.117803,-0.007 0.227357,0.0241 0.40625,0.125 0.257685,0.16809 0.372969,0.41518 0.46875,0.71875 0.09578,0.30357 0.117886,0.6348 0.3125,0.90625 0.124237,0.17329 0.300785,0.27405 0.46875,0.34375 0.167965,0.0697 0.358491,0.12893 0.5,0.1875 0.141509,0.0586 0.229489,0.0936 0.28125,0.15625 0.05176,0.0626 0.08894,0.1235 0.0625,0.28125 -0.03205,0.19121 -0.120322,0.35619 -0.28125,0.5 -0.160928,0.14381 -0.411607,0.28021 -0.6875,0.40625 -0.551786,0.25209 -1.243921,0.47858 -1.90625,0.84375 -0.392207,0.21624 -0.860941,0.62491 -1.34375,0.90625 -0.241404,0.14067 -0.481812,0.25119 -0.6875,0.28125 -0.205688,0.0301 -0.39355,0.002 -0.5625,-0.125 -0.366948,-0.27681 -0.429155,-0.57935 -0.40625,-1.03125 0.0229,-0.4519 0.169937,-1.03281 0.25,-1.71875 0.06286,-0.53858 0.02816,-1.27784 0,-1.90625 -0.01408,-0.31421 -0.03926,-0.60963 -0.03125,-0.8125 0.0034,-0.0872 0.02309,-0.14157 0.03125,-0.1875 0.09828,-0.05 0.154947,-0.0783 0.21875,-0.0625 z"
         id="path3879"
         style="font-size:medium;font-style:normal;font-variant:normal;font-weight:normal;font-stretch:normal;text-indent:0;text-align:start;text-decoration:none;line-height:normal;letter-spacing:normal;word-spacing:normal;text-transform:none;direction:ltr;block-progression:tb;writing-mode:lr-tb;text-anchor:start;baseline-shift:baseline;color:#000000;fill:#f9bf0e;fill-opacity:1;fill-rule:nonzero;stroke:none;stroke-width:0.5;marker:none;visibility:visible;display:inline;overflow:visible;enable-background:accumulate;font-family:Sans;-inkscape-font-specification:Sans" />
    </g>
    <g
       transform="translate(-16.401567,23.33643)"
       id="g4017">
      <use
         transform="translate(45.765165,-29.124998)"
         id="use4019"
         x="0"
         y="0"
         width="110.89581"
         height="50.134098"
         xlink:href="#rect3875" />
      <path
         d="m 96.84375,160.61218 c 0.46875,-0.625 1.296875,-0.0781 1.640625,-0.48438 0.34375,-0.40625 0.609375,-1.07812 1.203125,-1.07812 0.59375,0 1.30631,1.83756 2.09375,2.875 0.46759,0.61604 1.125,1.60937 0.6875,2.64063 -0.25396,0.59862 -1.63597,0.92949 -2.953125,0.68749 -0.981516,-0.18032 -3.186412,-0.78288 -3.313285,-1.03582 -0.351658,-0.7011 0.621177,-0.67002 0.668084,-1.1501 0.117417,-1.20176 -0.557924,-1.6422 -0.02667,-2.4547 z"
         id="path4021"
         style="fill:#000000;fill-opacity:1;stroke:none" />
      <path
         d="m 105.2482,152.56776 c 0.65435,0.42683 0.60033,1.32023 0.87199,1.69915 0.31008,0.4325 1.48428,0.31274 1.34207,1.16122 -0.16923,1.00968 -1.7481,1.20505 -3.01302,1.90246 -0.67728,0.37342 -1.94565,1.72101 -2.83996,1.04639 -0.86396,-0.65173 -0.40959,-1.63411 -0.25434,-2.96429 0.11568,-0.99121 -0.17739,-2.94957 0.0667,-3.09273 0.67658,-0.3968 0.9905,0.54473 1.47262,0.56011 1.20687,0.0385 1.50841,-0.78923 2.35394,-0.31231 z"
         id="path4023"
         style="fill:#000000;fill-opacity:1;stroke:none" />
    </g>
    <g
       transform="translate(4.0669578,23.33643)"
       id="g4031">
      <use
         transform="translate(45.765165,-29.124998)"
         id="use4033"
         x="0"
         y="0"
         width="110.89581"
         height="50.134098"
         xlink:href="#rect3875" />
      <path
         d="m 96.84375,160.61218 c 0.46875,-0.625 1.296875,-0.0781 1.640625,-0.48438 0.34375,-0.40625 0.609375,-1.07812 1.203125,-1.07812 0.59375,0 1.30631,1.83756 2.09375,2.875 0.46759,0.61604 1.125,1.60937 0.6875,2.64063 -0.25396,0.59862 -1.63597,0.92949 -2.953125,0.68749 -0.981516,-0.18032 -3.186412,-0.78288 -3.313285,-1.03582 -0.351658,-0.7011 0.621177,-0.67002 0.668084,-1.1501 0.117417,-1.20176 -0.557924,-1.6422 -0.02667,-2.4547 z"
         id="path4035"
         style="fill:#ffffff;fill-opacity:1;stroke:none" />
      <path
         d="m 105.2482,152.56776 c 0.65435,0.42683 0.60033,1.32023 0.87199,1.69915 0.31008,0.4325 1.48428,0.31274 1.34207,1.16122 -0.16923,1.00968 -1.7481,1.20505 -3.01302,1.90246 -0.67728,0.37342 -1.94565,1.72101 -2.83996,1.04639 -0.86396,-0.65173 -0.40959,-1.63411 -0.25434,-2.96429 0.11568,-0.99121 -0.17739,-2.94957 0.0667,-3.09273 0.67658,-0.3968 0.9905,0.54473 1.47262,0.56011 1.20687,0.0385 1.50841,-0.78923 2.35394,-0.31231 z"
         id="path4037"
         style="fill:#ffffff;fill-opacity:1;stroke:none" />
    </g>
    <path
       d="m 124.04881,181.75891 c -0.39117,0 -0.67018,0.22471 -0.875,0.46875 -0.20482,0.24404 -0.38276,0.51201 -0.53125,0.6875 -0.0361,0.0427 -0.0577,0.051 -0.15625,0.0625 -0.0986,0.0115 -0.24447,0.004 -0.40625,0 -0.16178,-0.004 -0.33992,0.007 -0.53125,0.0625 -0.19133,0.0552 -0.38236,0.17648 -0.53125,0.375 l -0.0312,0 c -0.3035,0.46418 -0.2481,0.90248 -0.15625,1.28125 0.0918,0.37877 0.21016,0.72948 0.15625,1.28125 -0.004,0.0365 -0.0275,0.0708 -0.0937,0.125 -0.0663,0.0542 -0.16458,0.10794 -0.28125,0.1875 -0.11667,0.0796 -0.27052,0.19716 -0.34375,0.375 -0.0732,0.17784 -0.0458,0.4091 0.0625,0.625 0.072,0.14354 0.16,0.13782 0.25,0.1875 0.09,0.0497 0.18664,0.10647 0.3125,0.15625 0.25172,0.0996 0.58827,0.20881 0.9375,0.3125 0.69846,0.20738 1.49329,0.40691 2,0.5 0.69378,0.12747 1.38818,0.10513 1.96875,-0.0312 0.58057,-0.13638 1.06581,-0.37834 1.25,-0.8125 0.2476,-0.58364 0.18294,-1.16195 0,-1.65625 -0.18294,-0.4943 -0.47995,-0.90413 -0.71875,-1.21875 -0.3727,-0.49103 -0.7373,-1.21392 -1.09375,-1.8125 -0.17823,-0.29929 -0.34984,-0.57097 -0.53125,-0.78125 -0.18141,-0.21028 -0.37886,-0.375 -0.65625,-0.375 z m 2.25,-6.8125 c -0.1919,-0.0475 -0.44261,-0.0315 -0.65625,0.0937 -0.1472,0.0863 -0.13478,0.21713 -0.15625,0.3125 -0.0215,0.0954 -0.0579,0.19472 -0.0625,0.3125 -0.009,0.23557 0.017,0.52657 0.0312,0.84375 0.0284,0.63436 0.0528,1.35987 0,1.8125 -0.0752,0.64424 -0.2229,1.21524 -0.25,1.75 -0.0271,0.53476 0.12799,1.06258 0.625,1.4375 0.2782,0.20986 0.60143,0.29455 0.90625,0.25 0.30482,-0.0445 0.60286,-0.18517 0.875,-0.34375 0.54427,-0.31716 0.84863,-0.64647 1.3125,-0.90625 0.60628,-0.33953 1.31006,-0.57138 1.90625,-0.84375 0.29809,-0.13619 0.55901,-0.27016 0.78125,-0.46875 0.22224,-0.19859 0.41618,-0.46762 0.46875,-0.78125 0.0447,-0.26649 -0.0182,-0.52043 -0.15625,-0.6875 -0.13809,-0.16707 -0.32698,-0.24089 -0.5,-0.3125 -0.17302,-0.0716 -0.36504,-0.1315 -0.5,-0.1875 -0.13496,-0.056 -0.2192,-0.11329 -0.25,-0.15625 -0.077,-0.10747 -0.14129,-0.40544 -0.25,-0.75 -0.10871,-0.34456 -0.29084,-0.77251 -0.6875,-1.03125 -0.24387,-0.13756 -0.47324,-0.20032 -0.6875,-0.1875 -0.21426,0.0128 -0.42088,0.11329 -0.59375,0.1875 -0.34573,0.14843 -0.6418,0.29866 -1.1875,0.28125 -0.0401,-0.001 -0.098,-0.0238 -0.1875,-0.0937 -0.0895,-0.0699 -0.1888,-0.17727 -0.3125,-0.28125 -0.1237,-0.10398 -0.27685,-0.20249 -0.46875,-0.25 z"
       id="path3890"
       style="font-size:medium;font-style:normal;font-variant:normal;font-weight:normal;font-stretch:normal;text-indent:0;text-align:start;text-decoration:none;line-height:normal;letter-spacing:normal;word-spacing:normal;text-transform:none;direction:ltr;block-progression:tb;writing-mode:lr-tb;text-anchor:start;baseline-shift:baseline;color:#000000;fill:#000000;fill-opacity:1;fill-rule:nonzero;stroke:none;stroke-width:0.5;marker:none;visibility:visible;display:inline;overflow:visible;enable-background:accumulate;font-family:Sans;-inkscape-font-specification:Sans" />
  </g>
</svg>
