<?xml version="1.0" encoding="UTF-8" standalone="no"?>
<!-- Generator: Adobe Illustrator 15.0.2, SVG Export Plug-In . SVG Version: 6.00 Build 0)  -->

<svg
   xmlns:dc="http://purl.org/dc/elements/1.1/"
   xmlns:cc="http://creativecommons.org/ns#"
   xmlns:rdf="http://www.w3.org/1999/02/22-rdf-syntax-ns#"
   xmlns:svg="http://www.w3.org/2000/svg"
   xmlns="http://www.w3.org/2000/svg"
   xmlns:sodipodi="http://sodipodi.sourceforge.net/DTD/sodipodi-0.dtd"
   xmlns:inkscape="http://www.inkscape.org/namespaces/inkscape"
   version="1.1"
   id="Capa_1"
   x="0px"
   y="0px"
   width="300.19806"
   height="143.63004"
   viewBox="0 0 300.19806 143.63004"
   enable-background="new 0 0 800 600"
   xml:space="preserve"
   inkscape:version="0.48.1 r9760"
   sodipodi:docname="logo.svg"
   inkscape:export-filename="/home/carlos/logo_aqpglug.png"
   inkscape:export-xdpi="90"
   inkscape:export-ydpi="90"><metadata
   id="metadata29"><rdf:RDF><cc:Work
       rdf:about=""><dc:format>image/svg+xml</dc:format><dc:type
         rdf:resource="http://purl.org/dc/dcmitype/StillImage" /><dc:title></dc:title></cc:Work></rdf:RDF></metadata><defs
   id="defs27" /><sodipodi:namedview
   pagecolor="#ffffff"
   bordercolor="#666666"
   borderopacity="1"
   objecttolerance="10"
   gridtolerance="10"
   guidetolerance="10"
   inkscape:pageopacity="0"
   inkscape:pageshadow="2"
   inkscape:window-width="1280"
   inkscape:window-height="974"
   id="namedview25"
   showgrid="false"
   fit-margin-top="5"
   fit-margin-left="5"
   fit-margin-right="5"
   fit-margin-bottom="5"
   inkscape:zoom="0.43166667"
   inkscape:cx="194.46909"
   inkscape:cy="37.880031"
   inkscape:window-x="0"
   inkscape:window-y="25"
   inkscape:window-maximized="1"
   inkscape:current-layer="Capa_1" />
<path
   stroke-miterlimit="10"
   d="m 239.95189,76.417 c -1.411,-2.604 0.387,-8.883 0.667,-11.833 0.738,-7.757 -0.902,-28.243 0,-31.167 2.083,-6.75 6.461,-2.652 8,-1.333 2.333,2 8.005,3.661 11.167,1.833 0.581,-0.336 13.124,-4.72 15,-0.833 11.666,24.167 16.293,21.031 18,22.5 3.583,3.083 -17.033,11.991 -23.334,14.833 -4.25,1.917 -14.48,9.678 -17.416,10.75 -9.584,3.5 -11,-2.75 -12.084,-4.75 z"
   id="path3"
   inkscape:connector-curvature="0"
   style="fill:none;stroke:#f9bf0e;stroke-width:4;stroke-miterlimit:10" />
<g
   id="g5"
   transform="translate(-210.16411,-194.25)">
	<g
   id="g7">
		<path
   d="m 248.715,291.635 -2.394,2.268 c -1.722,-1.693 -3.608,-2.978 -5.659,-3.853 -2.05,-0.875 -4.049,-1.313 -5.994,-1.313 -2.422,0 -4.728,0.595 -6.918,1.785 -2.191,1.189 -3.888,2.803 -5.092,4.839 -1.204,2.037 -1.806,4.188 -1.806,6.456 0,2.324 0.623,4.532 1.869,6.625 1.246,2.093 2.967,3.737 5.165,4.934 2.197,1.197 4.605,1.795 7.223,1.795 3.177,0 5.865,-0.896 8.063,-2.688 2.197,-1.791 3.499,-4.115 3.905,-6.971 h -9.847 v -2.98 h 13.312 c -0.028,4.772 -1.445,8.563 -4.252,11.369 -2.806,2.807 -6.561,4.209 -11.264,4.209 -5.711,0 -10.232,-1.945 -13.563,-5.836 -2.562,-2.996 -3.842,-6.46 -3.842,-10.394 0,-2.926 0.735,-5.647 2.205,-8.167 1.47,-2.52 3.485,-4.49 6.047,-5.911 2.562,-1.42 5.459,-2.131 8.692,-2.131 2.617,0 5.081,0.473 7.391,1.417 2.308,0.946 4.562,2.461 6.759,4.547 z"
   id="path9"
   inkscape:connector-curvature="0"
   style="fill:#efbe15" />
		<path
   d="m 256.421,286.448 h 3.086 v 27.904 h 11.884 v 2.981 h -14.97 v -30.885 z"
   id="path11"
   inkscape:connector-curvature="0"
   style="fill:#efbe15" />
		<path
   d="m 276.388,286.448 h 3.086 v 18.645 c 0,2.212 0.042,3.591 0.126,4.137 0.154,1.218 0.511,2.236 1.071,3.055 0.56,0.819 1.42,1.505 2.583,2.058 1.162,0.554 2.331,0.829 3.506,0.829 1.021,0 2.001,-0.217 2.939,-0.65 0.938,-0.434 1.722,-1.036 2.352,-1.806 0.63,-0.77 1.092,-1.7 1.386,-2.792 0.21,-0.784 0.315,-2.395 0.315,-4.83 v -18.645 h 3.086 v 18.645 c 0,2.758 -0.27,4.987 -0.808,6.688 -0.539,1.701 -1.617,3.182 -3.233,4.441 -1.617,1.26 -3.573,1.889 -5.869,1.889 -2.492,0 -4.626,-0.595 -6.404,-1.784 -1.778,-1.189 -2.968,-2.765 -3.569,-4.724 -0.378,-1.204 -0.567,-3.374 -0.567,-6.51 v -18.646 z"
   id="path13"
   inkscape:connector-curvature="0"
   style="fill:#efbe15" />
		<path
   d="m 334.232,291.635 -2.394,2.268 c -1.722,-1.693 -3.608,-2.978 -5.658,-3.853 -2.051,-0.875 -4.049,-1.313 -5.995,-1.313 -2.422,0 -4.728,0.595 -6.918,1.785 -2.19,1.189 -3.888,2.803 -5.091,4.839 -1.204,2.037 -1.806,4.188 -1.806,6.456 0,2.324 0.623,4.532 1.869,6.625 1.246,2.093 2.967,3.737 5.165,4.934 2.197,1.197 4.605,1.795 7.223,1.795 3.177,0 5.865,-0.896 8.063,-2.688 2.197,-1.791 3.499,-4.115 3.905,-6.971 h -9.847 v -2.98 h 13.312 c -0.028,4.772 -1.445,8.563 -4.251,11.369 -2.807,2.807 -6.562,4.209 -11.265,4.209 -5.711,0 -10.232,-1.945 -13.563,-5.836 -2.562,-2.996 -3.842,-6.46 -3.842,-10.394 0,-2.926 0.735,-5.647 2.205,-8.167 1.47,-2.52 3.485,-4.49 6.047,-5.911 2.562,-1.42 5.459,-2.131 8.692,-2.131 2.617,0 5.081,0.473 7.391,1.417 2.307,0.946 4.561,2.461 6.758,4.547 z"
   id="path15"
   inkscape:connector-curvature="0"
   style="fill:#efbe15" />
	</g>
</g>
<path
   d="m 51.758889,5 -35.18,0.03 c -5.96,0.39 -6.21,10.34 0.02,11.239 l 32.85,-0.02 c 0,0 9.17,0.58 11.5,8 l -0.08,13.83 -31.25,-0.08 c 0,0 -21.8800001,0.34 -24.2500001,19.47 -0.83,6.7 0,6.75 0,6.75 0,0 1.83,15.11 22.8400001,18.04 l 41.83,0.07 c 0,0 4.7,-0.39 5.1,-4.58 v -53.58 c 0,0.001 -0.19,-15.879 -23.38,-19.169 z m 9.03,66 h -30.84 c -8.33,-1.67 -11,-9.17 -11,-9.17 v -3.58 c 0,0 0.59,-5.75 9.75,-9.08 h 32.09 V 71 z"
   id="path17"
   inkscape:connector-curvature="0"
   style="fill:#cccccc" />
<path
   d="M 93.952889,62.583 V 24.75 c 1.854,-6.938 10.333001,-8.5 10.333001,-8.5 h 23.333 c 0,0 -23.386,-6.087 -31.333001,-7.333 -1.07,-0.168 -3.284,-0.268 -4.333,0 -13.335,3.396 -11.667,13.833 -11.667,13.833 v 41.5 c 0,0 1.396,13.313 21.167001,18.083 0,0 4.912,0.993 6.667,0 6,-3.396 27.333,-27.583 27.333,-27.583 v 73.5 c 0,0 -0.208,5.833 4.667,5.833 h 5.5 c 3.813,0 3.688,-5.333 3.688,-5.333 l 0.125,-86.813 c 0,0 -1.609,-2.65 -4.5,-3.188 -1.094,-0.203 -3.609,-0.457 -4.609,0.141 -5.445,3.255 -32.203,32.11 -32.203,32.11 h -4.667 c -8.647001,-2.875 -9.501001,-8.417 -9.501001,-8.417 z"
   id="path19"
   inkscape:connector-curvature="0"
   style="fill:#999999" />
<path
   d="M 210.42989,62.583 V 24.75 c -1.854,-6.938 -10.334,-8.5 -10.334,-8.5 h -23.332 c 0,0 23.385,-6.087 31.332,-7.333 1.07,-0.168 3.283,-0.268 4.334,0 13.335,3.396 11.666,13.833 11.666,13.833 v 41.5 c 0,0 -1.395,13.313 -21.166,18.083 0,0 -4.555,0.832 -6.666,0 -1.373,-0.541 -27.334,-27.583 -27.334,-27.583 v 73.5 c 0,0 0.209,5.833 -4.666,5.833 h -5.5 c -3.813,0 -3.688,-5.333 -3.688,-5.333 l -0.125,-86.813 c 0,0 1.645,-2.485 4.5,-3.188 0.699,-0.172 2.835,-0.5 4.262,0.281 2.148,1.177 32.551,31.97 32.551,31.97 h 4.666 c 8.646,-2.875 9.5,-8.417 9.5,-8.417 z"
   id="path21"
   inkscape:connector-curvature="0"
   style="fill:#666666" />
<path
   stroke-miterlimit="10"
   d="m 199.86989,125.833 c 0,-1.583 2.366,-2.648 2.5,-3.5 1.166,-7.416 -2.5,-19.666 2.416,-25.416 2.06,-2.408 9.75,-1.5 13.167,-3 3.118,-1.369 4.667,-9.255 10,-9.25 7.304,0.007 14.975,13.31 19.25,23.25 1.541,3.583 4.803,5.732 6.167,15.167 0.916,6.333 -3.722,11.278 -12.584,13.249 -6,1.334 -23.75,-2.833 -23.75,-2.833 0,0 -17.166,-5.917 -17.166,-7.667 z"
   id="path23"
   inkscape:connector-curvature="0"
   style="fill:none;stroke:#f9bf0e;stroke-width:4;stroke-miterlimit:10" />
</svg>