<?xml version="1.0" encoding="utf-8"?>
<!-- Generator: Adobe Illustrator 15.0.2, SVG Export Plug-In . SVG Version: 6.00 Build 0)  -->
<!DOCTYPE svg PUBLIC "-//W3C//DTD SVG 1.1//EN" "http://www.w3.org/Graphics/SVG/1.1/DTD/svg11.dtd">
<svg version="1.1" id="Capa_1" xmlns="http://www.w3.org/2000/svg" xmlns:xlink="http://www.w3.org/1999/xlink" x="0px" y="0px"
	 width="800px" height="600px" viewBox="0 0 800 600" enable-background="new 0 0 800 600" xml:space="preserve">
<path fill="none" stroke="#F9BF0E" stroke-width="4" stroke-miterlimit="10" d="M450.116,270.667
	c-1.411-2.604,0.387-8.883,0.667-11.833c0.738-7.757-0.902-28.243,0-31.167c2.083-6.75,6.461-2.652,8-1.333
	c2.333,2,8.005,3.661,11.167,1.833c0.581-0.336,13.124-4.72,15-0.833c11.666,24.167,16.293,21.031,18,22.5
	c3.583,3.083-17.033,11.991-23.334,14.833c-4.25,1.917-14.48,9.678-17.416,10.75C452.616,278.917,451.2,272.667,450.116,270.667z"/>
<g>
	<g>
		<path fill="#EFBE15" d="M248.715,291.635l-2.394,2.268c-1.722-1.693-3.608-2.978-5.659-3.853c-2.05-0.875-4.049-1.313-5.994-1.313
			c-2.422,0-4.728,0.595-6.918,1.785c-2.191,1.189-3.888,2.803-5.092,4.839c-1.204,2.037-1.806,4.188-1.806,6.456
			c0,2.324,0.623,4.532,1.869,6.625c1.246,2.093,2.967,3.737,5.165,4.934c2.197,1.197,4.605,1.795,7.223,1.795
			c3.177,0,5.865-0.896,8.063-2.688c2.197-1.791,3.499-4.115,3.905-6.971h-9.847v-2.98h13.312
			c-0.028,4.772-1.445,8.563-4.252,11.369c-2.806,2.807-6.561,4.209-11.264,4.209c-5.711,0-10.232-1.945-13.563-5.836
			c-2.562-2.996-3.842-6.46-3.842-10.394c0-2.926,0.735-5.647,2.205-8.167s3.485-4.49,6.047-5.911
			c2.562-1.42,5.459-2.131,8.692-2.131c2.617,0,5.081,0.473,7.391,1.417C244.264,288.034,246.518,289.549,248.715,291.635z"/>
		<path fill="#EFBE15" d="M256.421,286.448h3.086v27.904h11.884v2.981h-14.97V286.448z"/>
		<path fill="#EFBE15" d="M276.388,286.448h3.086v18.645c0,2.212,0.042,3.591,0.126,4.137c0.154,1.218,0.511,2.236,1.071,3.055
			c0.56,0.819,1.42,1.505,2.583,2.058c1.162,0.554,2.331,0.829,3.506,0.829c1.021,0,2.001-0.217,2.939-0.65
			c0.938-0.434,1.722-1.036,2.352-1.806s1.092-1.7,1.386-2.792c0.21-0.784,0.315-2.395,0.315-4.83v-18.645h3.086v18.645
			c0,2.758-0.27,4.987-0.808,6.688c-0.539,1.701-1.617,3.182-3.233,4.441c-1.617,1.26-3.573,1.889-5.869,1.889
			c-2.492,0-4.626-0.595-6.404-1.784c-1.778-1.189-2.968-2.765-3.569-4.724c-0.378-1.204-0.567-3.374-0.567-6.51V286.448z"/>
		<path fill="#EFBE15" d="M334.232,291.635l-2.394,2.268c-1.722-1.693-3.608-2.978-5.658-3.853
			c-2.051-0.875-4.049-1.313-5.995-1.313c-2.422,0-4.728,0.595-6.918,1.785c-2.19,1.189-3.888,2.803-5.091,4.839
			c-1.204,2.037-1.806,4.188-1.806,6.456c0,2.324,0.623,4.532,1.869,6.625c1.246,2.093,2.967,3.737,5.165,4.934
			c2.197,1.197,4.605,1.795,7.223,1.795c3.177,0,5.865-0.896,8.063-2.688c2.197-1.791,3.499-4.115,3.905-6.971h-9.847v-2.98h13.312
			c-0.028,4.772-1.445,8.563-4.251,11.369c-2.807,2.807-6.562,4.209-11.265,4.209c-5.711,0-10.232-1.945-13.563-5.836
			c-2.562-2.996-3.842-6.46-3.842-10.394c0-2.926,0.735-5.647,2.205-8.167s3.485-4.49,6.047-5.911
			c2.562-1.42,5.459-2.131,8.692-2.131c2.617,0,5.081,0.473,7.391,1.417C329.781,288.034,332.035,289.549,334.232,291.635z"/>
	</g>
</g>
<path fill="#CCCCCC" d="M261.923,199.25l-35.18,0.03c-5.96,0.39-6.21,10.34,0.02,11.239l32.85-0.02c0,0,9.17,0.58,11.5,8
	l-0.08,13.83l-31.25-0.08c0,0-21.88,0.34-24.25,19.47c-0.83,6.7,0,6.75,0,6.75s1.83,15.11,22.84,18.04l41.83,0.07
	c0,0,4.7-0.39,5.1-4.58v-53.58C285.303,218.42,285.113,202.54,261.923,199.25z M270.953,265.25h-30.84c-8.33-1.67-11-9.17-11-9.17
	v-3.58c0,0,0.59-5.75,9.75-9.08h32.09V265.25z"/>
<path fill="#999999" d="M304.117,256.833V219c1.854-6.938,10.333-8.5,10.333-8.5h23.333c0,0-23.386-6.087-31.333-7.333
	c-1.07-0.168-3.284-0.268-4.333,0C288.782,206.563,290.45,217,290.45,217v41.5c0,0,1.396,13.313,21.167,18.083
	c0,0,4.912,0.993,6.667,0c6-3.396,27.333-27.583,27.333-27.583v73.5c0,0-0.208,5.833,4.667,5.833h5.5
	c3.813,0,3.688-5.333,3.688-5.333l0.125-86.813c0,0-1.609-2.65-4.5-3.188c-1.094-0.203-3.609-0.457-4.609,0.141
	c-5.445,3.255-32.203,32.11-32.203,32.11h-4.667C304.971,262.375,304.117,256.833,304.117,256.833z"/>
<path fill="#666666" d="M420.594,256.833V219c-1.854-6.938-10.334-8.5-10.334-8.5h-23.332c0,0,23.385-6.087,31.332-7.333
	c1.07-0.168,3.283-0.268,4.334,0C435.929,206.563,434.26,217,434.26,217v41.5c0,0-1.395,13.313-21.166,18.083
	c0,0-4.555,0.832-6.666,0C405.055,276.042,379.094,249,379.094,249v73.5c0,0,0.209,5.833-4.666,5.833h-5.5
	c-3.813,0-3.688-5.333-3.688-5.333l-0.125-86.813c0,0,1.645-2.485,4.5-3.188c0.699-0.172,2.835-0.5,4.262,0.281
	c2.148,1.177,32.551,31.97,32.551,31.97h4.666C419.74,262.375,420.594,256.833,420.594,256.833z"/>
<path fill="none" stroke="#F9BF0E" stroke-width="4" stroke-miterlimit="10" d="M410.034,320.083c0-1.583,2.366-2.648,2.5-3.5
	c1.166-7.416-2.5-19.666,2.416-25.416c2.06-2.408,9.75-1.5,13.167-3c3.118-1.369,4.667-9.255,10-9.25
	c7.304,0.007,14.975,13.31,19.25,23.25c1.541,3.583,4.803,5.732,6.167,15.167c0.916,6.333-3.722,11.278-12.584,13.249
	c-6,1.334-23.75-2.833-23.75-2.833S410.034,321.833,410.034,320.083z"/>
</svg>
